<?xml version="1.0" encoding="UTF-8"?>
<svg version="1.1" viewBox="0 0 256 256" xmlns="http://www.w3.org/2000/svg">
 <g transform="translate(0 -796.36)">
  <path d="m54.241 842.41c-0.47597-7e-3 -0.95982 5e-3 -1.438 0.0167-3.8255 0.097-7.7038 0.77663-11.333 1.6092-3.3992 0.77986-7.0506 2.0811-9.3643 4.6907-3.6256 4.0892-5.5124 15.425-5.5124 15.425s-10.619 7.0994-14.329 12.138c-3.4896 4.7395-5.3216 10.576-6.8991 16.246-1.0445 3.7543-1.291 7.6918-1.6435 11.573-2.3278 25.63-5.0152 48.958-3.0301 77.157 0.70842 10.064 5.0934 14.999 11.025 19.567 5.4892 4.2276 13.256 6.215 20.115 5.2385 5.3841-0.7665 10.178-4.4895 14.004-8.3542 7.9784-8.0589 15.483-28.016 17.137-29.394 1.6533-1.3777 3.8519-4.6907 3.8519-4.6907s5.2928 4.7838 8.5426 6.0603c4.5704 1.7951 9.7365 2.5903 14.603 1.9345 6.323-0.85208 12.786-3.2986 17.633-7.4469 3.447-2.95 7.173-11.573 7.173-11.573h26.449s3.726 8.6227 7.173 11.573c4.8474 4.1484 11.31 6.5948 17.633 7.4469 4.8663 0.65579 10.032-0.13934 14.603-1.9345 3.2498-1.2764 8.5426-6.0603 8.5426-6.0603s2.1986 3.313 3.8518 4.6907c1.6533 1.3778 9.141 21.335 17.119 29.394 3.8262 3.8648 8.6367 7.5878 14.021 8.3542 6.8593 0.9765 14.626-1.0109 20.115-5.2385 5.9315-4.5682 10.316-9.5038 11.025-19.567 1.985-28.199-0.70235-51.527-3.0301-77.157-0.35248-3.8809-0.61614-7.8184-1.6606-11.573-1.5775-5.6702-3.3924-11.507-6.882-16.246-3.7096-5.0382-14.329-12.138-14.329-12.138s-1.9041-11.335-5.5296-15.425c-2.3137-2.6096-5.9479-3.9109-9.3472-4.6907-7.2584-1.6652-15.525-2.7085-22.341 0.29103-3.9204 1.7252-6.595 6.0577-8.7994 9.3643s-3.304 13.781-3.304 13.781l-38.313-0.15416v-0.11974l-13.764 0.0514-13.781-0.0514v0.11974l-38.313 0.15416s-1.0996-10.475-3.304-13.781c-2.2044-3.3066-4.879-7.6391-8.7994-9.3643-2.9821-1.3123-6.2379-1.8667-9.5698-1.9174zm155.5 27.511c5.1807 0 9.3814 4.2008 9.3814 9.3814 0 5.1807-4.2008 9.3814-9.3814 9.3814-5.1807 0-9.3814-4.2008-9.3814-9.3814 0-5.1807 4.2007-9.3814 9.3814-9.3814zm-171.31 5.307h15.099v11.23s-5.4723 7.2084-7.5496 7.1217c-2.2054-0.092-7.5496-7.1217-7.5496-7.1217zm148.55 14.62c5.1807 0 9.3814 4.2008 9.3814 9.3814 0 5.1807-4.2008 9.3814-9.3814 9.3814-5.1807 0-9.3814-4.2008-9.3814-9.3814 0-5.1807 4.2008-9.3814 9.3814-9.3814zm45.538 0c5.1807 0 9.3814 4.2008 9.3814 9.3814 0 5.1807-4.2007 9.3814-9.3814 9.3814s-9.3814-4.2008-9.3814-9.3814c0-5.1807 4.2007-9.3814 9.3814-9.3814zm-208.86 0.68478h11.23s7.0296 5.3614 7.1217 7.5668c0.0868 2.0773-7.1217 7.5496-7.1217 7.5496h-11.23zm33.417 0h11.23v15.116h-11.23s-7.2084-5.4723-7.1217-7.5496c0.092-2.2054 7.1217-7.5668 7.1217-7.5668zm88.705 4.023 14.687 4.8106-14.687 4.8277zm-51.345 0.33876h14.633v8.9607h-14.633zm-48.453 7.7245c2.0773-0.0868 7.5496 7.1217 7.5496 7.1217v11.23h-15.099v-11.23s5.3442-7.0296 7.5496-7.1217zm163.76 7.173c5.1807 0 9.3814 4.2008 9.3814 9.3814 0 5.1807-4.2008 9.3814-9.3814 9.3814-5.1807 0-9.3814-4.2008-9.3814-9.3814 0-5.1807 4.2007-9.3814 9.3814-9.3814zm-123.66 16.4c10.12 0 18.318 8.1976 18.318 18.318s-8.1976 18.335-18.318 18.335-18.318-8.2148-18.318-18.335 8.1977-18.318 18.318-18.318zm82.721 0c10.12 0 18.318 8.1976 18.318 18.318s-8.1976 18.335-18.318 18.335-18.318-8.2148-18.318-18.335 8.1976-18.318 18.318-18.318z" fill="#212121"/>
 </g>
</svg>
